HIERARCHY
ROOT Hips
{
	OFFSET 0.00000 0.00000 0.00000
	CHANNELS 6 Xposition Yposition Zposition Zrotation Yrotation Xrotation 
	JOINT LHipJoint
	{
		OFFSET 0 0 0
		CHANNELS 3 Zrotation Yrotation Xrotation
		JOINT LeftUpLeg
		{
			OFFSET 1.57314 -1.85774 0.63783
			CHANNELS 3 Zrotation Yrotation Xrotation
			JOINT LeftLeg
			{
				OFFSET 2.57982 -7.08799 0.00000
				CHANNELS 3 Zrotation Yrotation Xrotation
				JOINT LeftFoot
				{
					OFFSET 2.63993 -7.25315 0.00000
					CHANNELS 3 Zrotation Yrotation Xrotation
					JOINT LeftToeBase
					{
						OFFSET 0.16864 -0.46332 2.12791
						CHANNELS 3 Zrotation Yrotation Xrotation
						End Site
						{
							OFFSET 0.00000 -0.00000 1.09718
						}
					}
				}
			}
		}
	}
	JOINT RHipJoint
	{
		OFFSET 0 0 0
		CHANNELS 3 Zrotation Yrotation Xrotation
		JOINT RightUpLeg
		{
			OFFSET -1.56006 -1.85774 0.63784
			CHANNELS 3 Zrotation Yrotation Xrotation
			JOINT RightLeg
			{
				OFFSET -2.54246 -6.98536 0.00000
				CHANNELS 3 Zrotation Yrotation Xrotation
				JOINT RightFoot
				{
					OFFSET -2.65791 -7.30256 0.00000
					CHANNELS 3 Zrotation Yrotation Xrotation
					JOINT RightToeBase
					{
						OFFSET -0.18435 -0.50650 2.16316
						CHANNELS 3 Zrotation Yrotation Xrotation
						End Site
						{
							OFFSET -0.00000 -0.00000 1.11780
						}
					}
				}
			}
		}
	}
	JOINT LowerBack
	{
		OFFSET 0 0 0
		CHANNELS 3 Zrotation Yrotation Xrotation
		JOINT Spine
		{
			OFFSET -0.00136 1.92812 -0.29638
			CHANNELS 3 Zrotation Yrotation Xrotation
			JOINT Spine1
			{
				OFFSET -0.00528 1.96223 -0.02928
				CHANNELS 3 Zrotation Yrotation Xrotation
				JOINT Neck
				{
					OFFSET 0 0 0
					CHANNELS 3 Zrotation Yrotation Xrotation
					JOINT Neck1
					{
						OFFSET -0.01015 1.75586 0.07797
						CHANNELS 3 Zrotation Yrotation Xrotation
						JOINT Head
						{
							OFFSET 0.05540 1.72452 0.04558
							CHANNELS 3 Zrotation Yrotation Xrotation
							End Site
							{
								OFFSET 0.02170 1.79958 0.00864
							}
						}
					}
				}
				JOINT LeftShoulder
				{
					OFFSET 0 0 0
					CHANNELS 3 Zrotation Yrotation Xrotation
					JOINT LeftArm
					{
						OFFSET 3.16292 1.29277 -0.65728
						CHANNELS 3 Zrotation Yrotation Xrotation
						JOINT LeftForeArm
						{
							OFFSET 5.52302 -0.00000 -0.00000
							CHANNELS 3 Zrotation Yrotation Xrotation
							JOINT LeftHand
							{
								OFFSET 3.58675 -0.00000 -0.00000
								CHANNELS 3 Zrotation Yrotation Xrotation
								JOINT LeftFingerBase
								{
									OFFSET 0 0 0
									CHANNELS 3 Zrotation Yrotation Xrotation
									JOINT LeftHandIndex1
									{
										OFFSET 0.53641 -0.00000 -0.00000
										CHANNELS 3 Zrotation Yrotation Xrotation
										End Site
										{
											OFFSET 0.43247 -0.00000 -0.00000
										}
									}
								}
								JOINT LThumb
								{
									OFFSET 0 0 0
									CHANNELS 3 Zrotation Yrotation Xrotation
									End Site
									{
										OFFSET 0.43907 -0.00000 0.43907
									}
								}
							}
						}
					}
				}
				JOINT RightShoulder
				{
					OFFSET 0 0 0
					CHANNELS 3 Zrotation Yrotation Xrotation
					JOINT RightArm
					{
						OFFSET -3.08296 1.43376 -0.52927
						CHANNELS 3 Zrotation Yrotation Xrotation
						JOINT RightForeArm
						{
							OFFSET -5.84780 -0.00000 0.00000
							CHANNELS 3 Zrotation Yrotation Xrotation
							JOINT RightHand
							{
								OFFSET -3.62717 -0.00000 -0.00000
								CHANNELS 3 Zrotation Yrotation Xrotation
								JOINT RightFingerBase
								{
									OFFSET 0 0 0
									CHANNELS 3 Zrotation Yrotation Xrotation
									JOINT RightHandIndex1
									{
										OFFSET -0.65052 -0.00000 -0.00000
										CHANNELS 3 Zrotation Yrotation Xrotation
										End Site
										{
											OFFSET -0.52446 -0.00000 -0.00000
										}
									}
								}
								JOINT RThumb
								{
									OFFSET 0 0 0
									CHANNELS 3 Zrotation Yrotation Xrotation
									End Site
									{
										OFFSET -0.53247 -0.00000 0.53247
									}
								}
							}
						}
					}
				}
			}
		}
	}
}
MOTION
Frames: 13
Frame Time: .0083333
-0.3071 17.6356 -28.2214 0 0 0 0 0 0 -21 0 0 0 0 0 0 0 0 0 0 0 0 0 0 21 0 0 0 0 0 0 0 0 0 0 0 0 0 0 0 0 0 0 0 0 0 0 -16 0 0 21 0 0 11 0 0 0 -8 0 0 0 0 0 0 0 0 0 0 0 0 0 0 0 0 0 0 0 0 8 0 0 0 0 0 0 0 0 0 0 0 0 0 0 0 0 0
-0.3071 17.6356 -28.2214 -4.5460 1.4421 2.3608 0.0000 0.0000 0.0000 -18.1100 -11.0719 -25.4028 4.0793 12.2651 36.6764 -0.0334 -7.8904 -4.7895 0.1003 2.0419 5.6215 0.0000 0.0000 0.0000 25.7511 -3.0912 3.4552 -17.3738 -19.8338 82.3010 -1.5108 -17.4928 23.5872 -1.1476 -6.8022 19.1308 1.6527 -0.1825 15.4094 -0.1101 0.0318 1.5458 -1.0607 -0.0336 -6.9977 -1.3463 -0.6770 -3.2416 1.0810 -0.8183 -9.2820 0.5781 -0.3887 -2.3551 -0.0000 0.0000 0.0000 -82.8546 15.8805 40.0112 123.1448 -55.4120 -88.2620 -0.0000 0.0000 -30.7395 40.2999 10.3853 8.6919 -7.1250 0.0000 -0.0000 12.1057 43.1617 -0.5579 -0.0000 0.0000 0.0000 77.4155 -10.2888 47.2452 -69.1517 58.2922 -42.0484 0.0000 0.0000 2.4690 -40.6255 25.7937 -20.4700 7.1250 -0.0000 -0.0000 -6.3591 2.3296 -6.6528
-0.3037 17.5624 -27.7253 -4.3387 1.7707 2.0255 0.0000 0.0000 0.0000 -18.6759 -11.4461 -24.2784 4.5927 12.9098 39.0319 0.1684 -7.0803 -8.2387 0.0006 0.1642 0.4511 0.0000 0.0000 0.0000 24.5509 -3.4256 0.6324 -18.9406 -19.9731 86.9013 -1.3480 -17.8155 22.6704 -1.3791 -7.4312 20.9994 1.3519 -0.3806 16.0608 -0.0540 -0.2670 1.6867 -0.7660 -0.1696 -7.2142 -1.5591 -0.4937 -2.8886 1.1590 -0.5680 -9.8863 0.6425 -0.2583 -2.6230 -0.0000 -0.0000 0.0000 -83.1907 13.0758 40.5097 123.6840 -55.2456 -88.7055 -0.0000 0.0000 -30.2025 39.6288 9.5391 7.8143 -7.1250 0.0000 -0.0000 11.3929 42.0087 -0.8530 -0.0000 -0.0000 0.0000 77.7412 -10.8749 46.1155 -64.9338 57.4874 -38.4751 0.0000 0.0000 5.3335 -42.4435 25.1790 -21.2600 7.1250 -0.0000 -0.0000 -7.5464 2.2701 -7.9072
-0.2942 17.4728 -27.2384 -4.0652 1.9428 1.6285 0.0000 0.0000 0.0000 -19.3945 -11.4345 -22.6647 4.8878 13.2563 40.3355 0.3107 -6.9239 -10.3465 0.0133 -0.7443 -2.0456 0.0000 0.0000 0.0000 23.2959 -3.4658 -2.2703 -20.4651 -19.9948 91.3601 -1.2884 -17.4766 22.1759 -1.4970 -7.7287 21.8930 1.1418 -0.5200 16.9292 -0.1432 -0.4838 1.8147 -0.6903 -0.2705 -7.5595 -1.5608 -0.3139 -2.5993 1.2406 -0.3208 -10.5834 0.6713 -0.1366 -2.9150 -0.0000 -0.0000 0.0000 -83.1847 10.0306 41.2666 124.0522 -55.1297 -89.0078 -0.0000 0.0000 -29.7854 39.1755 9.0873 7.3336 -7.1250 0.0000 -0.0000 10.9339 41.3872 -0.9875 -0.0000 -0.0000 0.0000 78.3830 -11.5147 44.5274 -61.6671 56.7381 -35.7317 0.0000 0.0000 7.2954 -43.4895 25.3087 -22.0740 7.1250 -0.0000 -0.0000 -8.1119 2.8226 -8.5864
-0.2951 17.4133 -26.7480 -2.9478 2.0493 1.4823 0.0000 0.0000 0.0000 -20.9762 -11.3344 -21.1323 5.1050 13.5011 41.2744 0.4275 -7.3381 -11.9686 0.0424 -1.3290 -3.6545 0.0000 0.0000 0.0000 21.0825 -3.3095 -5.4187 -21.8839 -19.9147 95.5157 -1.2647 -16.2476 21.6254 -1.4587 -7.6336 21.6065 -0.1358 -0.5703 17.6241 -0.3682 -0.8084 1.6233 -0.1230 -0.3900 -8.1424 -1.9460 0.0012 -1.1528 1.6261 0.1159 -11.5008 0.8670 0.0805 -3.5109 0.0000 0.0000 0.0000 -83.2603 7.5832 41.9421 124.4973 -54.9873 -89.3727 -0.0000 0.0000 -29.1819 39.5448 9.0143 7.3711 -7.1250 0.0000 -0.0000 11.2619 41.3393 -1.0315 0.0000 0.0000 0.0000 78.8900 -12.8161 43.0154 -59.6412 56.2136 -34.0427 0.0000 0.0000 7.9646 -44.0159 25.7978 -22.8067 7.1250 -0.0000 -0.0000 -8.2888 3.6122 -8.8857
-0.3089 17.3487 -26.2763 -1.2787 2.0037 1.6024 0.0000 0.0000 0.0000 -23.1009 -11.0396 -19.7576 5.2359 13.6447 41.8323 0.5776 -7.1865 -13.6925 0.1252 -2.2806 -6.2817 0.0000 0.0000 0.0000 18.2278 -2.8547 -8.9615 -23.2303 -19.7479 99.4831 -1.1740 -14.3627 20.4497 -1.1917 -6.9273 19.5000 -2.0984 -0.5056 17.8676 -0.7064 -1.1408 1.6389 0.7116 -0.4871 -8.2296 -2.4406 0.3762 -0.4282 2.0453 0.6427 -12.1785 1.0851 0.3457 -3.9080 0.0000 -0.0000 0.0000 -83.3172 4.4484 42.2962 124.6944 -54.9234 -89.5341 -0.0000 0.0000 -28.5665 38.6473 9.2091 7.2927 -7.1250 0.0000 -0.0000 10.4655 41.4773 -0.9206 0.0000 -0.0000 0.0000 79.3455 -13.6826 41.5187 -58.0294 55.7615 -32.7066 0.0000 0.0000 7.6792 -43.4879 25.9326 -22.5296 7.1250 -0.0000 -0.0000 -7.9567 3.5624 -8.5162
-0.3219 17.2953 -25.8061 0.1048 1.7511 2.0087 0.0000 0.0000 0.0000 -24.8371 -10.6694 -18.4506 5.2778 13.6900 42.0096 0.7287 -6.7494 -15.2555 0.1746 -2.6917 -7.4215 0.0000 0.0000 0.0000 15.8100 -2.0325 -12.8523 -24.3866 -19.5323 102.9224 -0.9879 -12.3432 18.5226 -0.7017 -5.3544 14.9223 -3.5679 -0.2802 17.7186 -1.2047 -1.1567 2.0348 1.0090 -0.4658 -7.6991 -2.2398 0.5812 -1.5576 2.2604 0.9800 -12.7602 1.1129 0.5025 -3.9083 0.0000 -0.0000 0.0000 -82.7931 0.4039 43.0930 124.8320 -54.8785 -89.6467 -0.0000 0.0000 -27.8677 38.2790 10.6372 8.2880 -7.1250 0.0000 -0.0000 10.2426 43.2000 -0.4601 0.0000 -0.0000 0.0000 80.4492 -13.6231 39.3168 -56.4241 55.2792 -31.3833 0.0000 0.0000 7.1627 -42.7531 25.8585 -21.9601 7.1250 -0.0000 -0.0000 -7.5586 3.1894 -8.0361
-0.3233 17.2551 -25.3320 0.0512 1.6948 2.3671 0.0000 0.0000 0.0000 -24.9981 -10.1346 -17.0921 5.2848 13.6975 42.0390 0.8252 -7.1454 -16.2406 0.1700 -2.6560 -7.3225 0.0000 0.0000 0.0000 15.3421 -1.2251 -16.6881 -25.2647 -19.3221 105.5618 -0.7197 -10.8466 15.8632 -0.2505 -3.2203 8.8927 -3.3926 -0.3167 17.5350 -1.3072 -1.1602 2.3441 0.7969 -0.4843 -7.2691 -2.0386 0.8000 -2.2078 2.3527 1.3157 -13.5914 1.1038 0.6601 -4.0906 -0.0000 0.0000 0.0000 -82.3574 -3.0816 44.0111 124.8200 -54.8824 -89.6368 -0.0000 0.0000 -26.6004 39.1022 14.4814 11.4883 -7.1250 0.0000 -0.0000 11.3175 48.0591 0.8645 -0.0000 0.0000 0.0000 81.4747 -13.7099 37.2041 -54.9812 54.8171 -30.2007 0.0000 0.0000 6.8354 -42.7653 25.8641 -21.9726 7.1250 -0.0000 -0.0000 -7.5641 3.2007 -8.0435
-0.3172 17.2292 -24.8591 -0.1114 1.8252 2.6543 0.0000 0.0000 0.0000 -25.0822 -9.5221 -15.5365 5.2482 13.6580 41.8842 0.9079 -7.5548 -17.0477 0.2203 -3.0218 -8.3393 0.0000 0.0000 0.0000 15.1584 -0.4436 -20.2847 -25.8946 -19.1457 107.4740 -0.5468 -9.7346 13.8874 -0.1028 -2.0673 5.6916 -3.1995 -0.6007 17.7252 -1.1149 -1.4997 2.0360 0.9781 -0.6410 -7.6937 -2.2979 1.1492 -1.2695 2.2484 1.7595 -13.9594 1.1016 0.8911 -4.4212 0.0000 0.0000 0.0000 -82.4894 -5.0241 44.3709 125.0236 -54.8155 -89.8033 -0.0000 0.0000 -25.1596 38.3837 9.5376 7.4774 -7.1250 0.0000 -0.0000 10.2531 41.8537 -0.8052 0.0000 0.0000 0.0000 81.6477 -14.8496 36.0901 -53.6274 54.3577 -29.0972 0.0000 0.0000 6.8682 -42.1484 25.6465 -21.3926 7.1250 -0.0000 -0.0000 -7.2656 2.7113 -7.6619
-0.3101 17.2254 -24.3693 0.0954 1.9387 2.9625 0.0000 0.0000 0.0000 -25.5772 -8.5422 -13.8006 5.1059 13.5021 41.2782 0.9588 -7.7192 -17.5212 0.2708 -3.3476 -9.2481 0.0000 0.0000 0.0000 14.5786 0.3488 -23.6421 -26.2868 -19.0247 108.6735 -0.5183 -9.0879 13.4160 -0.1576 -2.5583 7.0513 -3.4721 -0.9959 17.9287 -0.8988 -2.0844 1.4040 1.5179 -0.8883 -8.4530 -2.7511 1.6496 0.4193 1.9741 2.3506 -14.1556 1.0603 1.2088 -4.8498 -0.0000 -0.0000 0.0000 -82.7926 -5.8173 44.1895 125.6409 -54.6091 -90.3072 -0.0000 0.0000 -23.4723 37.8070 10.0077 7.6790 -7.1250 0.0000 -0.0000 9.7604 42.3634 -0.6416 -0.0000 -0.0000 0.0000 81.2667 -16.6345 35.7500 -52.6223 53.9999 -28.2822 0.0000 0.0000 6.9408 -41.5673 24.6752 -20.3158 7.1250 -0.0000 -0.0000 -7.1608 1.3547 -7.3855
-0.3038 17.2134 -23.8716 0.3216 1.9214 3.1650 0.0000 0.0000 0.0000 -26.0885 -7.3659 -11.8833 4.8928 13.2621 40.3575 0.9509 -7.7340 -17.4514 0.3472 -3.7860 -10.4753 0.0000 0.0000 0.0000 14.0342 1.3016 -26.7856 -26.5187 -18.9491 109.3860 -0.5498 -8.8343 13.6936 -0.3608 -3.8589 10.6800 -3.1626 -0.9981 17.4311 -1.3501 -2.0114 2.3332 0.8156 -0.9034 -7.2015 -1.5179 1.4902 -3.0204 1.5213 2.1711 -13.4937 0.7135 1.0947 -3.9004 0.0000 0.0000 0.0000 -81.7998 -9.7081 44.8769 125.6945 -54.5910 -90.3509 -0.0000 0.0000 -21.8946 38.0744 10.2282 7.9193 -7.1250 0.0000 -0.0000 10.0226 42.6689 -0.5828 0.0000 0.0000 0.0000 82.8173 -15.8021 33.4525 -51.9847 53.7653 -27.7672 0.0000 0.0000 7.0966 -42.1713 23.6891 -19.9985 7.1250 -0.0000 -0.0000 -7.7386 0.3991 -7.8642
-0.2956 17.2887 -23.3450 0.4809 1.9248 3.2901 0.0000 0.0000 0.0000 -26.4570 -6.1217 -9.5549 4.5814 12.8963 38.9814 0.9031 -7.8396 -17.0262 0.4453 -4.2816 -11.8703 0.0000 0.0000 0.0000 13.6612 2.1450 -29.4398 -26.4015 -18.9877 109.0256 -0.6190 -8.5154 14.3551 -0.6107 -5.0019 13.9140 -3.1765 -1.3376 17.2670 -1.3282 -2.4568 2.1934 0.9463 -1.1164 -7.2456 -1.4327 1.7487 -2.2875 1.1289 2.4687 -13.6082 0.5548 1.2493 -4.0780 -0.0000 -0.0000 0.0000 -81.6779 -10.5845 44.6556 126.3477 -54.3664 -90.8826 -0.0000 0.0000 -20.2540 38.3866 8.7370 6.8617 -7.1250 0.0000 -0.0000 10.1887 40.8607 -1.0524 -0.0000 -0.0000 0.0000 82.8264 -17.0036 32.9920 -52.1846 53.8395 -27.9285 0.0000 0.0000 6.9751 -42.3120 24.1575 -20.4325 7.1250 -0.0000 -0.0000 -7.7118 1.0088 -7.9179
-0.3002 17.3584 -22.8246 0.7967 2.1492 3.4701 0.0000 0.0000 0.0000 -26.8313 -5.1493 -7.3260 4.2816 12.5260 37.6190 0.8063 -7.7740 -16.1135 0.6848 -5.2906 -14.7393 0.0000 0.0000 0.0000 13.2032 2.8424 -32.1127 -26.1733 -19.0606 108.3254 -0.6257 -8.1387 14.3571 -0.6758 -5.2567 14.6423 -3.5661 -1.6863 17.1448 -1.1955 -2.9761 2.0777 1.4233 -1.3534 -7.2570 -1.4975 2.0007 -2.2766 0.7510 2.7604 -13.1063 0.4338 1.4108 -3.8980 0.0000 -0.0000 0.0000 -81.5992 -11.4596 44.6028 127.3221 -54.0200 -91.6728 -0.0000 0.0000 -19.3343 38.6023 7.9520 6.3026 -7.1250 0.0000 -0.0000 10.3116 39.9062 -1.3108 0.0000 -0.0000 0.0000 82.5430 -17.9895 32.8156 -52.4454 53.9354 -28.1392 0.0000 0.0000 6.6767 -41.9581 25.0136 -20.8149 7.1250 -0.0000 -0.0000 -7.3071 1.8953 -7.6061
